<svg width="18" height="14" viewBox="0 0 18 14" fill="none" xmlns="http://www.w3.org/2000/svg">
<path d="M16.5 0.75H1.5C1.16848 0.75 0.850537 0.881696 0.616116 1.11612C0.381696 1.35054 0.25 1.66848 0.25 2V12C0.25 12.3315 0.381696 12.6495 0.616116 12.8839C0.850537 13.1183 1.16848 13.25 1.5 13.25H16.5C16.8315 13.25 17.1495 13.1183 17.3839 12.8839C17.6183 12.6495 17.75 12.3315 17.75 12V2C17.75 1.66848 17.6183 1.35054 17.3839 1.11612C17.1495 0.881696 16.8315 0.75 16.5 0.75ZM4 10.125H2.75C2.58424 10.125 2.42527 10.0592 2.30806 9.94194C2.19085 9.82473 2.125 9.66576 2.125 9.5C2.125 9.33424 2.19085 9.17527 2.30806 9.05806C2.42527 8.94085 2.58424 8.875 2.75 8.875H4C4.16576 8.875 4.32473 8.94085 4.44194 9.05806C4.55915 9.17527 4.625 9.33424 4.625 9.5C4.625 9.66576 4.55915 9.82473 4.44194 9.94194C4.32473 10.0592 4.16576 10.125 4 10.125ZM11.5 10.125H6.5C6.33424 10.125 6.17527 10.0592 6.05806 9.94194C5.94085 9.82473 5.875 9.66576 5.875 9.5C5.875 9.33424 5.94085 9.17527 6.05806 9.05806C6.17527 8.94085 6.33424 8.875 6.5 8.875H11.5C11.6658 8.875 11.8247 8.94085 11.9419 9.05806C12.0592 9.17527 12.125 9.33424 12.125 9.5C12.125 9.66576 12.0592 9.82473 11.9419 9.94194C11.8247 10.0592 11.6658 10.125 11.5 10.125ZM15.25 10.125H14C13.8342 10.125 13.6753 10.0592 13.5581 9.94194C13.4408 9.82473 13.375 9.66576 13.375 9.5C13.375 9.33424 13.4408 9.17527 13.5581 9.05806C13.6753 8.94085 13.8342 8.875 14 8.875H15.25C15.4158 8.875 15.5747 8.94085 15.6919 9.05806C15.8092 9.17527 15.875 9.33424 15.875 9.5C15.875 9.66576 15.8092 9.82473 15.6919 9.94194C15.5747 10.0592 15.4158 10.125 15.25 10.125ZM15.25 7.625H2.75C2.58424 7.625 2.42527 7.55915 2.30806 7.44194C2.19085 7.32473 2.125 7.16576 2.125 7C2.125 6.83424 2.19085 6.67527 2.30806 6.55806C2.42527 6.44085 2.58424 6.375 2.75 6.375H15.25C15.4158 6.375 15.5747 6.44085 15.6919 6.55806C15.8092 6.67527 15.875 6.83424 15.875 7C15.875 7.16576 15.8092 7.32473 15.6919 7.44194C15.5747 7.55915 15.4158 7.625 15.25 7.625ZM15.25 5.125H2.75C2.58424 5.125 2.42527 5.05915 2.30806 4.94194C2.19085 4.82473 2.125 4.66576 2.125 4.5C2.125 4.33424 2.19085 4.17527 2.30806 4.05806C2.42527 3.94085 2.58424 3.875 2.75 3.875H15.25C15.4158 3.875 15.5747 3.94085 15.6919 4.05806C15.8092 4.17527 15.875 4.33424 15.875 4.5C15.875 4.66576 15.8092 4.82473 15.6919 4.94194C15.5747 5.05915 15.4158 5.125 15.25 5.125Z" fill="url(#paint0_linear_715_2640)"/>
<defs>
<linearGradient id="paint0_linear_715_2640" x1="0.25" y1="7" x2="25.5877" y2="7.1869" gradientUnits="userSpaceOnUse">
<stop stop-color="#5CB5EE"/>
<stop offset="1" stop-color="#8FF2B9"/>
</linearGradient>
</defs>
</svg>
