<svg width="20" height="22" viewBox="0 0 20 22" fill="none" xmlns="http://www.w3.org/2000/svg">
<path fill-rule="evenodd" clip-rule="evenodd" d="M10.9998 0.0498047C13.295 0.280453 15.4399 1.2975 17.071 2.92862C18.7021 4.55974 19.7192 6.70461 19.9498 8.9998H17.9998C17.7346 8.9998 17.4802 9.10516 17.2927 9.2927C17.1052 9.48023 16.9998 9.73459 16.9998 9.9998C16.9998 10.265 17.1052 10.5194 17.2927 10.7069C17.4802 10.8944 17.7346 10.9998 17.9998 10.9998H19.9498C19.4488 16.0528 15.1848 19.9998 9.9998 19.9998C4.8148 19.9998 0.550805 16.0528 0.0498047 10.9998H1.9998C2.26502 10.9998 2.51937 10.8944 2.70691 10.7069C2.89445 10.5194 2.9998 10.265 2.9998 9.9998C2.9998 9.73459 2.89445 9.48023 2.70691 9.2927C2.51937 9.10516 2.26502 8.9998 1.9998 8.9998H0.0498047C0.280453 6.70461 1.2975 4.55974 2.92862 2.92862C4.55974 1.2975 6.70461 0.280453 8.9998 0.0498047V1.9998C8.9998 2.26502 9.10516 2.51937 9.2927 2.70691C9.48023 2.89445 9.73459 2.9998 9.9998 2.9998C10.265 2.9998 10.5194 2.89445 10.7069 2.70691C10.8944 2.51937 10.9998 2.26502 10.9998 1.9998V0.0498047ZM15.7798 4.2198L10.9368 6.6848L10.5638 6.8818L9.9538 7.1918C9.2338 7.5618 8.4998 7.9638 7.9488 8.5148C6.9778 9.4868 6.8598 11.1028 7.8788 12.1208C8.8968 13.1398 10.5128 13.0218 11.4848 12.0508C11.9568 11.5788 12.3198 10.9728 12.6468 10.3548L13.1178 9.4358L13.4798 8.7378L15.7798 4.2198ZM11.1618 8.8378L11.0498 9.0478L10.9368 9.2638C10.7278 9.6658 10.5108 10.0858 10.2388 10.4358L10.0708 10.6358C9.7928 10.9138 9.4458 10.8598 9.2928 10.7068C9.15481 10.5688 9.0968 10.2748 9.2898 10.0148L9.3628 9.9298C9.6818 9.63581 10.0868 9.4038 10.4928 9.1898L10.7358 9.0628C10.8825 8.98747 11.0245 8.91247 11.1618 8.8378Z" fill="url(#paint0_linear_715_2616)"/>
<defs>
<linearGradient id="paint0_linear_715_2616" x1="0.0498047" y1="10.0248" x2="28.8631" y2="10.1762" gradientUnits="userSpaceOnUse">
<stop stop-color="#5CB5EE"/>
<stop offset="1" stop-color="#8FF2B9"/>
</linearGradient>
</defs>
</svg>
