<svg width="20" height="22" viewBox="0 0 20 22" fill="none" xmlns="http://www.w3.org/2000/svg">
<path fill-rule="evenodd" clip-rule="evenodd" d="M9.18604 0.74707C8.55405 0.74707 7.92825 0.871549 7.34437 1.1134C6.76049 1.35525 6.22997 1.70974 5.78308 2.15662C5.3362 2.6035 4.98172 3.13403 4.73986 3.71791C4.49801 4.30179 4.37354 4.92758 4.37354 5.55957C4.37354 6.19156 4.49801 6.81736 4.73986 7.40123C4.98172 7.98511 5.3362 8.51564 5.78308 8.96252C6.22997 9.4094 6.76049 9.76389 7.34437 10.0057C7.92825 10.2476 8.55405 10.3721 9.18604 10.3721C10.4624 10.3721 11.6865 9.86504 12.589 8.96252C13.4915 8.06 13.9985 6.83592 13.9985 5.55957C13.9985 4.28322 13.4915 3.05914 12.589 2.15662C11.6865 1.2541 10.4624 0.74707 9.18604 0.74707ZM17.0144 11.0825C16.5689 10.5783 15.9144 10.2575 15.1875 10.2575H13.4375C13.1175 10.2575 12.8006 10.3205 12.5049 10.443C12.2092 10.5655 11.9406 10.7451 11.7143 10.9714C11.4881 11.1978 11.3086 11.4665 11.1862 11.7622C11.0638 12.0579 11.0009 12.3749 11.001 12.6949V18.8164C11.001 19.4626 11.2577 20.0823 11.7147 20.5393C12.1716 20.9962 12.7913 21.2529 13.4375 21.2529H15.1865C15.9144 21.2529 16.568 20.9321 17.0135 20.4279C17.1269 20.2903 17.1824 20.114 17.1683 19.9363C17.1542 19.7585 17.0716 19.5932 16.9379 19.4752C16.8042 19.3572 16.6299 19.2957 16.4517 19.3038C16.2736 19.3119 16.1056 19.3889 15.9831 19.5186C15.8835 19.6319 15.7608 19.7226 15.6233 19.7846C15.4857 19.8466 15.3365 19.8784 15.1856 19.8779H13.4375C12.8509 19.8779 12.376 19.4022 12.376 18.8164V12.6949C12.376 12.1082 12.8509 11.6325 13.4375 11.6325H15.1865C15.5037 11.6325 15.787 11.7709 15.9831 11.9927C16.1047 12.126 16.2739 12.2062 16.454 12.2159C16.6342 12.2256 16.811 12.1641 16.9462 12.0446C17.0814 11.9251 17.1643 11.7573 17.1768 11.5773C17.1894 11.3973 17.1307 11.2196 17.0135 11.0825H17.0144Z" fill="url(#paint0_linear_715_2652)"/>
<path fill-rule="evenodd" clip-rule="evenodd" d="M19.6222 15.2684C19.751 15.3974 19.8233 15.5721 19.8233 15.7543C19.8233 15.9365 19.751 16.1112 19.6222 16.2401L17.7889 18.0734C17.6593 18.1987 17.4856 18.2681 17.3054 18.2666C17.1251 18.2652 16.9527 18.1929 16.8251 18.0655C16.6976 17.9381 16.6252 17.7657 16.6236 17.5855C16.6219 17.4052 16.6911 17.2315 16.8163 17.1018L18.6496 15.2684C18.7785 15.1397 18.9533 15.0674 19.1355 15.0674C19.3177 15.0674 19.4933 15.1397 19.6222 15.2684Z" fill="url(#paint1_linear_715_2652)"/>
<path fill-rule="evenodd" clip-rule="evenodd" d="M19.6222 16.2414C19.751 16.1125 19.8233 15.9377 19.8233 15.7555C19.8233 15.5734 19.751 15.3986 19.6222 15.2697L17.7889 13.4364C17.6593 13.3111 17.4856 13.2417 17.3054 13.2432C17.1251 13.2447 16.9527 13.3169 16.8251 13.4443C16.6976 13.5717 16.6252 13.7441 16.6236 13.9244C16.6219 14.1046 16.6911 14.2783 16.8163 14.408L18.6496 16.2414C18.7785 16.3701 18.9533 16.4424 19.1355 16.4424C19.3177 16.4424 19.4933 16.3701 19.6222 16.2414Z" fill="url(#paint2_linear_715_2652)"/>
<path fill-rule="evenodd" clip-rule="evenodd" d="M13.4062 15.7559C13.4063 15.5735 13.4787 15.3987 13.6076 15.2697C13.7365 15.1408 13.9114 15.0684 14.0938 15.0684H18.6771C18.8594 15.0684 19.0343 15.1408 19.1632 15.2697C19.2922 15.3987 19.3646 15.5735 19.3646 15.7559C19.3646 15.9382 19.2922 16.1131 19.1632 16.242C19.0343 16.3709 18.8594 16.4434 18.6771 16.4434H14.0938C13.9114 16.4434 13.7365 16.3709 13.6076 16.242C13.4787 16.1131 13.4062 15.9382 13.4062 15.7559Z" fill="url(#paint3_linear_715_2652)"/>
<path d="M9.64074 12.3659C9.63158 12.4749 9.62699 12.584 9.62699 12.6949V18.8164C9.62699 19.5003 9.80666 20.141 10.122 20.6956H1.77116C1.34571 20.6956 0.937681 20.5266 0.636842 20.2258C0.336002 19.9249 0.166992 19.5169 0.166992 19.0914V15.7264C0.166992 15.1644 0.476826 14.6484 0.973659 14.3844C3.63767 12.9685 6.6253 12.273 9.64074 12.3668V12.3659Z" fill="url(#paint4_linear_715_2652)"/>
<defs>
<linearGradient id="paint0_linear_715_2652" x1="4.37354" y1="11" x2="22.9143" y2="11.061" gradientUnits="userSpaceOnUse">
<stop stop-color="#5CB5EE"/>
<stop offset="1" stop-color="#8FF2B9"/>
</linearGradient>
<linearGradient id="paint1_linear_715_2652" x1="16.6235" y1="16.667" x2="21.2565" y2="16.6914" gradientUnits="userSpaceOnUse">
<stop stop-color="#5CB5EE"/>
<stop offset="1" stop-color="#8FF2B9"/>
</linearGradient>
<linearGradient id="paint2_linear_715_2652" x1="16.6235" y1="14.8428" x2="21.2565" y2="14.8672" gradientUnits="userSpaceOnUse">
<stop stop-color="#5CB5EE"/>
<stop offset="1" stop-color="#8FF2B9"/>
</linearGradient>
<linearGradient id="paint3_linear_715_2652" x1="13.4062" y1="15.7559" x2="22.0291" y2="15.9527" gradientUnits="userSpaceOnUse">
<stop stop-color="#5CB5EE"/>
<stop offset="1" stop-color="#8FF2B9"/>
</linearGradient>
<linearGradient id="paint4_linear_715_2652" x1="0.166992" y1="16.527" x2="14.5807" y2="16.6177" gradientUnits="userSpaceOnUse">
<stop stop-color="#5CB5EE"/>
<stop offset="1" stop-color="#8FF2B9"/>
</linearGradient>
</defs>
</svg>
