<svg width="20" height="20" viewBox="0 0 20 20" fill="none" xmlns="http://www.w3.org/2000/svg">
<g clip-path="url(#clip0_715_5110)">
<g filter="url(#filter0_d_715_5110)">
<path fill-rule="evenodd" clip-rule="evenodd" d="M9.219 2.05744C9.42404 1.89348 9.6755 1.79824 9.93771 1.78523C10.1999 1.77222 10.4596 1.84209 10.6798 1.98494L10.7807 2.05744L14.374 4.93244C14.5493 5.07257 14.6945 5.24665 14.8009 5.44427C14.9073 5.64188 14.9727 5.85894 14.9932 6.08244L14.9998 6.23328V15.8333H15.8332V8.74994C15.8331 8.65242 15.8673 8.55798 15.9297 8.48306C15.9922 8.40814 16.0789 8.3575 16.1748 8.33994L16.2498 8.33328H16.6665C17.087 8.33314 17.492 8.49195 17.8003 8.77786C18.1086 9.06377 18.2975 9.45565 18.329 9.87494L18.3332 9.99994V16.5833C18.3331 16.809 18.2497 17.0268 18.099 17.1949C17.9483 17.3629 17.7409 17.4695 17.5165 17.4941L17.4165 17.4999H2.58317C2.35729 17.5001 2.13932 17.4168 1.97107 17.2661C1.80282 17.1153 1.69615 16.9078 1.6715 16.6833L1.6665 16.5833V9.99994C1.66637 9.57946 1.82518 9.17447 2.11108 8.86615C2.39699 8.55784 2.78887 8.36898 3.20817 8.33744L3.33317 8.33328H3.74984C3.84736 8.33324 3.9418 8.36742 4.01672 8.42985C4.09164 8.49228 4.14228 8.57902 4.15984 8.67494L4.1665 8.74994V15.8333H4.99984V6.23328C4.99982 6.00885 5.04514 5.78673 5.13306 5.58024C5.22098 5.37375 5.3497 5.18714 5.5115 5.03161L5.62567 4.93161L9.219 2.05744ZM9.99984 7.49911C9.55781 7.49911 9.13389 7.6747 8.82133 7.98727C8.50877 8.29983 8.33317 8.72375 8.33317 9.16578C8.33317 9.6078 8.50877 10.0317 8.82133 10.3443C9.13389 10.6568 9.55781 10.8324 9.99984 10.8324C10.4419 10.8324 10.8658 10.6568 11.1783 10.3443C11.4909 10.0317 11.6665 9.6078 11.6665 9.16578C11.6665 8.72375 11.4909 8.29983 11.1783 7.98727C10.8658 7.6747 10.4419 7.49911 9.99984 7.49911Z" fill="url(#paint0_linear_715_5110)"/>
</g>
</g>
<defs>
<filter id="filter0_d_715_5110" x="-2.3335" y="1.78369" width="24.6665" height="23.7163" filterUnits="userSpaceOnUse" color-interpolation-filters="sRGB">
<feFlood flood-opacity="0" result="BackgroundImageFix"/>
<feColorMatrix in="SourceAlpha" type="matrix" values="0 0 0 0 0 0 0 0 0 0 0 0 0 0 0 0 0 0 127 0" result="hardAlpha"/>
<feOffset dy="4"/>
<feGaussianBlur stdDeviation="2"/>
<feComposite in2="hardAlpha" operator="out"/>
<feColorMatrix type="matrix" values="0 0 0 0 0 0 0 0 0 0 0 0 0 0 0 0 0 0 0.25 0"/>
<feBlend mode="normal" in2="BackgroundImageFix" result="effect1_dropShadow_715_5110"/>
<feBlend mode="normal" in="SourceGraphic" in2="effect1_dropShadow_715_5110" result="shape"/>
</filter>
<linearGradient id="paint0_linear_715_5110" x1="1.6665" y1="9.64182" x2="25.7982" y2="9.77665" gradientUnits="userSpaceOnUse">
<stop stop-color="#5CB5EE"/>
<stop offset="1" stop-color="#8FF2B9"/>
</linearGradient>
<clipPath id="clip0_715_5110">
<rect width="20" height="20" fill="white"/>
</clipPath>
</defs>
</svg>
