<svg width="18" height="21" viewBox="0 0 18 21" fill="none" xmlns="http://www.w3.org/2000/svg">
<path d="M9.00011 0C5.74665 0 3.07704 2.66962 3.07704 5.92308V6.76923H2.23088C1.30011 6.76923 0.538574 7.53077 0.538574 8.46154V18.6154C0.538574 19.5462 1.30011 20.3077 2.23088 20.3077H15.7693C16.7001 20.3077 17.4617 19.5462 17.4617 18.6154V8.46154C17.4617 7.53077 16.7001 6.76923 15.7693 6.76923H14.9232V5.92308C14.9232 2.66962 12.2536 0 9.00011 0ZM9.00011 1.69231C11.3313 1.69231 13.2309 3.59192 13.2309 5.92308V6.76923H4.76934V5.92308C4.76934 3.59192 6.66896 1.69231 9.00011 1.69231ZM9.00011 9.30769C11.3693 9.30769 13.2309 11.1692 13.2309 13.5385C13.2309 15.9077 11.3693 17.7692 9.00011 17.7692C6.63088 17.7692 4.76934 15.9077 4.76934 13.5385C4.76934 11.1692 6.63088 9.30769 9.00011 9.30769ZM9.00011 11C7.56165 11 6.46165 12.1 6.46165 13.5385C6.46165 14.9769 7.56165 16.0769 9.00011 16.0769C10.4386 16.0769 11.5386 14.9769 11.5386 13.5385C11.5386 13.2846 11.459 13.0257 11.459 12.7718C11.2052 13.1949 10.777 13.5385 10.2693 13.5385C9.59242 13.5385 9.00011 12.9462 9.00011 12.2692C9.00011 11.7615 9.34365 11.3334 9.76673 11.0795C9.51288 11.0795 9.25396 11 9.00011 11Z" fill="url(#paint0_linear_715_2648)"/>
<defs>
<linearGradient id="paint0_linear_715_2648" x1="0.538574" y1="10.1538" x2="25.0418" y2="10.2614" gradientUnits="userSpaceOnUse">
<stop stop-color="#5CB5EE"/>
<stop offset="1" stop-color="#8FF2B9"/>
</linearGradient>
</defs>
</svg>
